<svg xmlns="http://www.w3.org/2000/svg" viewBox="0 0 103 76" fill="none">
  <defs>
    <linearGradient id="fg" x1="0" y1="0" x2="103" y2="76" gradientUnits="userSpaceOnUse">
      <stop offset="0%" stop-color="#E8673A"/>
      <stop offset="100%" stop-color="#1B5FE8"/>
    </linearGradient>
  </defs>
  <!-- Left bubble: filled gradient -->
  <path d="M14,4 L44,4 A9,9 0 0,1 53,13 L53,42 A9,9 0 0,1 44,51 L20,51 L6,61 L11,51 A6,6 0 0,1 5,45 L5,13 A9,9 0 0,1 14,4 Z" fill="url(#fg)"/>
  <!-- White heart inside left bubble -->
  <path d="M22 11 C20 8.5 16.5 5 11.5 5 C5.5 5 2 9.5 2 14.5 C2 23 11 30 22 40 C33 30 42 23 42 14.5 C42 9.5 38.5 5 32.5 5 C27.5 5 24 8.5 22 11 Z" fill="white" opacity="0.93" transform="translate(13.16,11.3) scale(0.72)"/>
  <!-- Right bubble: outline only -->
  <path d="M89,14 L59,14 A9,9 0 0,0 50,23 L50,52 A9,9 0 0,0 59,61 L83,61 L97,71 L92,61 A6,6 0 0,0 98,55 L98,23 A9,9 0 0,0 89,14 Z" fill="white" stroke="url(#fg)" stroke-width="2.2" stroke-linejoin="round"/>
  <!-- Gradient heart inside right bubble -->
  <path d="M22 11 C20 8.5 16.5 5 11.5 5 C5.5 5 2 9.5 2 14.5 C2 23 11 30 22 40 C33 30 42 23 42 14.5 C42 9.5 38.5 5 32.5 5 C27.5 5 24 8.5 22 11 Z" fill="url(#fg)" transform="translate(58.16,21.3) scale(0.72)"/>
</svg>
